<?xml version="1.0" encoding="UTF-8" standalone="no"?>
<svg
   xmlns:dc="http://purl.org/dc/elements/1.1/"
   xmlns:cc="http://creativecommons.org/ns#"
   xmlns:rdf="http://www.w3.org/1999/02/22-rdf-syntax-ns#"
   xmlns:svg="http://www.w3.org/2000/svg"
   xmlns="http://www.w3.org/2000/svg"
   xmlns:sodipodi="http://sodipodi.sourceforge.net/DTD/sodipodi-0.dtd"
   xmlns:inkscape="http://www.inkscape.org/namespaces/inkscape"
   id="svg1"
   sodipodi:docname="cassette_logo.svg"
   viewBox="0 0 274.99999 180"
   sodipodi:version="0.32"
   _SVGFile__filename="oldscale/apps/konserve.svg"
   version="1.0"
   y="0"
   x="0"
   inkscape:version="1.0.2 (e86c870879, 2021-01-15, custom)"
   width="275"
   height="180"
   inkscape:export-filename="C:\Users\florian\Desktop\cassette_logo.png"
   inkscape:export-xdpi="362.19766"
   inkscape:export-ydpi="362.19766">
  <defs
     id="defs121352">
    <inkscape:path-effect
       effect="bspline"
       id="path-effect903"
       is_visible="true"
       lpeversion="1"
       weight="33.333333"
       steps="2"
       helper_size="0"
       apply_no_weight="true"
       apply_with_weight="true"
       only_selected="false" />
    <inkscape:path-effect
       effect="bspline"
       id="path-effect897"
       is_visible="true"
       lpeversion="1"
       weight="33.333333"
       steps="2"
       helper_size="0"
       apply_no_weight="true"
       apply_with_weight="true"
       only_selected="false" />
    <inkscape:path-effect
       effect="bspline"
       id="path-effect884"
       is_visible="true"
       lpeversion="1"
       weight="33.333333"
       steps="2"
       helper_size="0"
       apply_no_weight="true"
       apply_with_weight="true"
       only_selected="false" />
    <inkscape:path-effect
       effect="bspline"
       id="path-effect879"
       is_visible="true"
       lpeversion="1"
       weight="33.333333"
       steps="2"
       helper_size="0"
       apply_no_weight="true"
       apply_with_weight="true"
       only_selected="false" />
    <inkscape:path-effect
       effect="bspline"
       id="path-effect33"
       is_visible="true"
       lpeversion="1"
       weight="33.333333"
       steps="2"
       helper_size="0"
       apply_no_weight="true"
       apply_with_weight="true"
       only_selected="false" />
  </defs>
  <sodipodi:namedview
     id="base"
     bordercolor="#666666"
     inkscape:pageshadow="2"
     inkscape:window-y="-11"
     pagecolor="#fff4cd"
     inkscape:window-height="2080"
     inkscape:zoom="5.3788426"
     inkscape:window-x="-11"
     borderopacity="1.0"
     inkscape:current-layer="g121895"
     inkscape:cx="256.9762"
     inkscape:cy="74.610608"
     inkscape:window-width="3840"
     inkscape:pageopacity="0"
     showgrid="true"
     inkscape:window-maximized="1"
     fit-margin-top="0"
     fit-margin-left="0"
     fit-margin-right="0"
     fit-margin-bottom="0"
     inkscape:document-rotation="0">
    <inkscape:grid
       type="xygrid"
       id="grid899" />
  </sodipodi:namedview>
  <g
     id="g1747"
     transform="matrix(1.2290015,0,0,1.391447,-4.2398576,-25.666822)">
    <g
       id="g1717"
       transform="matrix(1.0194,0,0,1.0194,-0.07011,-1.1045)">
      <g
         id="g121895">
        <g
           id="g121906"
           transform="matrix(3.9872598,0,0,3.7772066,-6.1995606,-71.40429)"
           style="fill:#ffffff">
          <path
             id="rect745-6"
             style="fill:none;fill-rule:evenodd;stroke:#ffffff;stroke-width:3.15908;stroke-linecap:round;stroke-linejoin:round;stroke-opacity:1"
             d="m 6.4245124,25.821463 c -1.1140235,0 -2.0108733,0.89685 -2.0108733,2.010874 v 25.914125 c 0,1.114025 0.8968498,2.010874 2.0108733,2.010874 H 53.575472 c 1.114023,0 2.010873,-0.896849 2.010873,-2.010874 V 27.832337 c 0,-1.113923 -0.89685,-2.010773 -2.010873,-2.010773 H 6.4245124 Z"
             inkscape:connector-curvature="0" />
          <path
             id="rect745"
             style="fill:#ffffff;fill-rule:evenodd;stroke:#000000;stroke-width:3.14199996;stroke-linecap:round;stroke-linejoin:round"
             d="m 6.199,6.1771 c -1.108,0 -2,0.892 -2,2 l 0,25.774 c 0,1.108 0.892,2 2,2 l 46.896,0 c 1.108,0 2,-0.892 2,-2 l 0,-25.774 c 0,-1.1079 -0.892,-1.9999 -2,-1.9999 l -46.896,0 z"
             inkscape:connector-curvature="0"
             transform="matrix(0.97566,0,0,0.97566,1.0746,20.238)" />
          <g
             id="g957"
             style="fill:#ffffff">
            <g
               id="g1544"
               transform="matrix(0.97566,0,0,0.97566,2.8810359,0.86122)"
               style="fill:#ffffff" />
            <g
               id="g899"
               transform="translate(0.29556876)">
              <g
                 id="g890"
                 style="fill:#ffffff"
                 transform="matrix(0.97565999,0,0,0.97566001,2.8810359,0.8612192)">
                <path
                   id="path747"
                   style="fill:#ffffff;fill-rule:evenodd;stroke:#000000;stroke-width:2.07116;stroke-linecap:round;stroke-linejoin:round"
                   d="m 21.954214,36.283968 c 0,2.831189 -2.596384,5.128507 -5.795438,5.128507 -3.199755,0 -5.796069,-2.297318 -5.796069,-5.128507 0,-2.83057 2.596314,-5.127888 5.796069,-5.127888 3.199054,0 5.795438,2.297318 5.795438,5.127888 z"
                   inkscape:connector-curvature="0" />
                <path
                   id="path749"
                   style="fill:#ffffff;fill-rule:evenodd;stroke:#000000;stroke-width:1.24269;stroke-linecap:round;stroke-linejoin:round"
                   d="m 18.967482,36.283968 c 0,1.37157 -1.258598,2.485196 -2.80872,2.485196 -1.550543,0 -2.808861,-1.113626 -2.808861,-2.485196 0,-1.372191 1.258318,-2.485197 2.808861,-2.485197 1.550122,0 2.80872,1.113006 2.80872,2.485197 z"
                   inkscape:connector-curvature="0" />
              </g>
              <path
                 style="fill:none;stroke:#000000;stroke-width:1.93296;stroke-linecap:round;stroke-linejoin:round;stroke-miterlimit:4;stroke-dasharray:none;stroke-opacity:1"
                 d="m 45.460308,33.313727 c -7.366605,0.952101 -9.001166,4.649567 -9.008261,4.666142 4.060262,-1.153087 7.094409,-1.112588 10.009179,-0.933228"
                 id="path58"
                 sodipodi:nodetypes="ccc" />
            </g>
          </g>
        </g>
        <path
           id="path746"
           style="fill:#ffffff;fill-rule:evenodd;stroke:#000000;stroke-width:3.06550002;stroke-linecap:round;stroke-linejoin:round"
           d="m 12.792,55.19 4.342,-7.522 25.576,0 4.498,7.544 -34.416,-0.022 z"
           inkscape:connector-curvature="0"
           transform="matrix(3.9872598,0,0,3.7772066,-6.1995606,-71.404288)" />
        <path
           style="fill:none;stroke:#b23a48;stroke-width:11.9911;stroke-linecap:round;stroke-linejoin:round;stroke-miterlimit:4;stroke-dasharray:none;stroke-opacity:1"
           d="m 43.362156,104.4835 c 0,0 18.755993,15.4441 18.755993,15.4441 0,0 101.978161,0 101.978161,0 0,0 18.94803,-15.4441 18.94803,-15.4441"
           id="path901"
           sodipodi:nodetypes="cccc"
           inkscape:original-d="m 43.362156,104.4835 18.755993,15.4441 H 164.09631 l 18.94803,-15.4441"
           inkscape:path-effect="#path-effect903" />
      </g>
    </g>
  </g>
  <metadata
     id="metadata121350">
    <rdf:RDF>
      <cc:Work>
        <dc:format>image/svg+xml</dc:format>
        <dc:type
           rdf:resource="http://purl.org/dc/dcmitype/StillImage" />
        <cc:license
           rdf:resource="http://creativecommons.org/publicdomain/zero/1.0/" />
        <dc:publisher>
          <cc:Agent
             rdf:about="http://openclipart.org/">
            <dc:title>Openclipart</dc:title>
          </cc:Agent>
        </dc:publisher>
        <dc:title></dc:title>
      </cc:Work>
      <cc:License
         rdf:about="http://creativecommons.org/publicdomain/zero/1.0/">
        <cc:permits
           rdf:resource="http://creativecommons.org/ns#Reproduction" />
        <cc:permits
           rdf:resource="http://creativecommons.org/ns#Distribution" />
        <cc:permits
           rdf:resource="http://creativecommons.org/ns#DerivativeWorks" />
      </cc:License>
    </rdf:RDF>
  </metadata>
</svg>
