<?xml version="1.0" encoding="UTF-8" standalone="no"?>
<svg
   xmlns:dc="http://purl.org/dc/elements/1.1/"
   xmlns:cc="http://creativecommons.org/ns#"
   xmlns:rdf="http://www.w3.org/1999/02/22-rdf-syntax-ns#"
   xmlns:svg="http://www.w3.org/2000/svg"
   xmlns="http://www.w3.org/2000/svg"
   xmlns:sodipodi="http://sodipodi.sourceforge.net/DTD/sodipodi-0.dtd"
   xmlns:inkscape="http://www.inkscape.org/namespaces/inkscape"
   aria-hidden="true"
   focusable="false"
   data-prefix="fas"
   data-icon="music"
   class="svg-inline--fa fa-music fa-w-16"
   role="img"
   viewBox="0 0 512 512"
   version="1.1"
   id="svg58"
   sodipodi:docname="favicon.svg"
   inkscape:version="1.0.1 (c497b03c, 2020-09-10)">
  <metadata
     id="metadata64">
    <rdf:RDF>
      <cc:Work
         rdf:about="">
        <dc:format>image/svg+xml</dc:format>
        <dc:type
           rdf:resource="http://purl.org/dc/dcmitype/StillImage" />
        <dc:title></dc:title>
      </cc:Work>
    </rdf:RDF>
  </metadata>
  <defs
     id="defs62" />
  <sodipodi:namedview
     pagecolor="#ffffff"
     bordercolor="#666666"
     borderopacity="1"
     objecttolerance="10"
     gridtolerance="10"
     guidetolerance="10"
     inkscape:pageopacity="0"
     inkscape:pageshadow="2"
     inkscape:window-width="1680"
     inkscape:window-height="997"
     id="namedview60"
     showgrid="false"
     inkscape:zoom="0.62898002"
     inkscape:cx="-105.57319"
     inkscape:cy="194.63354"
     inkscape:window-x="0"
     inkscape:window-y="25"
     inkscape:window-maximized="1"
     inkscape:current-layer="svg58" />
  <rect
     style="fill:#1db954;fill-rule:evenodd;stroke-width:1.66666;fill-opacity:1"
     id="rect66"
     width="500"
     height="500"
     x="-1.5898756"
     y="-1.5898756"
     ry="76.314034" />
  <path
     fill="currentColor"
     d="M 430.8366,31.839409 158.5584,112.2456 a 27.230373,27.230373 0 0 0 -19.06977,25.96245 v 222.44664 a 118.28193,118.28193 0 0 0 -27.23037,-3.33573 c -45.100305,0 -81.691119,24.3882 -81.691119,54.46075 0,30.07255 36.590814,54.46075 81.691119,54.46075 45.10031,0 81.69112,-24.3882 81.69112,-54.46075 v -198.8498 l 217.84298,-63.82119 v 157.09372 a 117.77137,117.77137 0 0 0 -27.23038,-3.34422 c -45.10029,0 -81.69112,24.3882 -81.69112,54.46074 0,30.07255 36.59083,54.46075 81.69112,54.46075 45.10031,0 81.69112,-24.3797 81.69112,-54.46075 V 57.78485 A 27.230373,27.230373 0 0 0 430.8366,31.839409 Z"
     id="path56"
     style="stroke-width:0.850949" />
</svg>
